<svg height="85.333336" viewBox="0 0 85.333336 85.333336" width="85.333336" xmlns="http://www.w3.org/2000/svg"><g transform="matrix(.13333333 0 0 -.13333333 0 85.333333)"><path d="m640 320c0-176.738-143.262-320-320-320s-320 143.262-320 320 143.262 320 320 320 320-143.262 320-320" fill="#589da8"/><path d="m400 270c0 33.137 26.863 60 60 60s60-26.863 60-60-26.863-60-60-60-60 26.863-60 60" fill="#f5f5e6"/><path d="m430 270c0 16.563 13.434 30 30 30s30-13.437 30-30c0-16.562-13.434-30-30-30s-30 13.438-30 30" fill="#589da8"/><g fill="#f5f5e6"><path d="m450 180h-270v200h270z"/><path d="m450.004 380c0-27.617-60.441-50-135.004-50-74.555 0-135 22.383-135 50s60.445 50 135 50c74.563 0 135.004-22.383 135.004-50"/><path d="m450.004 180c0-27.617-60.441-50-135.004-50-74.555 0-135 22.383-135 50s60.445 50 135 50c74.563 0 135.004-22.383 135.004-50"/></g><path d="m420 385c0-13.809-47.008-25-105.004-25-57.988 0-104.996 11.191-104.996 25s47.008 25 104.996 25c57.996 0 105.004-11.191 105.004-25" fill="#4f6366"/><path d="m268.316 546.777c-1.484-8.554-2.125-15.488.168-23.972.016-.395-.004.093 0 0 1.797-6.438 4.911-11.028 9.481-15.91 5.437-5.809 8.875-14.747 9.18-22.586.535-13.938-7.305-26.86-18.829-34.309 1.336 4.609 2.407 9.48 2.012 14.297-.293 3.547-1.289 7.644-2.367 10.098-6.844 15.585-17.809 23.875-17.922 39.668.098 13.273 6.051 26.289 18.277 32.714" fill="#f5bb3d"/><path d="m314.711 595.168c-1.484-8.555-2.121-15.492.172-23.977.015-.39-.004.098 0 0 1.797-6.433 4.906-11.023 9.476-15.906 5.442-5.812 8.879-14.746 9.18-22.59.539-13.933-7.305-26.855-18.828-34.304 1.34 4.605 2.406 9.48 2.012 14.297-.293 3.542-1.289 7.644-2.368 10.093-6.839 15.586-17.808 23.879-17.917 39.672.093 13.27 6.046 26.285 18.273 32.715" fill="#f5bb3d"/><path d="m361.516 531.379c-1.086-6.242-1.555-11.313.125-17.512.004-.293-.004.071 0 0 1.308-4.695 3.578-8.047 6.918-11.621 3.976-4.25 6.484-10.762 6.707-16.492.394-10.188-5.34-19.609-13.75-25.063.972 3.364 1.754 6.926 1.468 10.442-.214 2.59-.941 5.586-1.734 7.375-4.988 11.387-13.004 17.437-13.086 28.972.066 9.7 4.418 19.2 13.352 23.899" fill="#f5bb3d"/><path d="m380 265c0 19.336-15.668 35-35 35-12.812 0-23.895-6.953-30-17.227-6.098 10.274-17.184 17.227-29.996 17.227-19.328 0-35-15.664-35-35 0-9.68 3.926-18.43 10.269-24.766l54.75-54.746 54.747 54.746-.024.008c6.34 6.34 10.254 15.09 10.254 24.758" fill="#de6724"/></g></svg>